<svg xmlns="http://www.w3.org/2000/svg" viewBox="0 0 240 150" fill="none">
  <rect width="240" height="150" fill="#1C2438"/>
  <rect x="58" y="22" width="124" height="7" rx="3.5" fill="#A9B2C6"/>
  <path d="M62 34h116l-8 104a6 6 0 0 1-6 5.5H76a6 6 0 0 1-6-5.5z" fill="#E8ECF4" stroke="#8F99B0" stroke-width="2"/>
  <rect x="78" y="44" width="84" height="56" rx="8" fill="#0B0F1A"/>
  <rect x="86" y="52" width="10" height="40" rx="3" fill="#2A3350"/><rect x="86" y="70" width="10" height="22" rx="3" fill="#FFC247"/>
  <rect x="104" y="54" width="36" height="8" rx="4" fill="#E8ECF4"/><rect x="104" y="68" width="24" height="5" rx="2.5" fill="#8F99B0"/><rect x="104" y="78" width="30" height="5" rx="2.5" fill="#8F99B0"/>
  <rect x="140" y="80" width="14" height="14" rx="2" fill="#E8ECF4"/><path d="M142 82h4v4h-4zM148 88h4v4h-4zM142 88h3v3h-3z" fill="#0B0F1A"/>
  <circle cx="120" cy="120" r="9" fill="#4FD1E0"/><circle cx="120" cy="120" r="4" fill="#0B0F1A"/>
  <g transform="translate(196 30)" fill="#FFC247"><path d="M0-10 2.4-2.4 10 0 2.4 2.4 0 10-2.4 2.4-10 0-2.4-2.4z"/></g><g transform="translate(40 110) scale(.6)" fill="#B48CFF"><path d="M0-10 2.4-2.4 10 0 2.4 2.4 0 10-2.4 2.4-10 0-2.4-2.4z"/></g>
</svg>
